<?xml version="1.0" encoding="UTF-8" standalone="no"?>
<!DOCTYPE svg PUBLIC "-//W3C//DTD SVG 1.1//EN"
 "http://www.w3.org/Graphics/SVG/1.1/DTD/svg11.dtd">
<!-- Generated by graphviz version 2.26.3 (20100126.1600)
 -->
<!-- Title: G Pages: 1 -->
<svg width="588pt" height="152pt"
 viewBox="0.00 0.00 588.00 152.00" xmlns="http://www.w3.org/2000/svg" xmlns:xlink="http://www.w3.org/1999/xlink">
<g id="graph1" class="graph" transform="scale(1 1) rotate(0) translate(4 148)">
<title>G</title>
<polygon fill="white" stroke="white" points="-4,5 -4,-148 585,-148 585,5 -4,5"/>
<g id="graph2" class="cluster"><title>cluster_Global</title>
<polyline fill="none" stroke="gray" points="20,-8 560,-8 "/>
<path fill="none" stroke="gray" d="M560,-8C566,-8 572,-14 572,-20"/>
<polyline fill="none" stroke="gray" points="572,-20 572,-124 "/>
<path fill="none" stroke="gray" d="M572,-124C572,-130 566,-136 560,-136"/>
<polyline fill="none" stroke="gray" points="560,-136 20,-136 "/>
<path fill="none" stroke="gray" d="M20,-136C14,-136 8,-130 8,-124"/>
<polyline fill="none" stroke="gray" points="8,-124 8,-20 "/>
<path fill="none" stroke="gray" d="M8,-20C8,-14 14,-8 20,-8"/>
<text text-anchor="middle" x="290" y="-122.1" font-family="Times Roman,serif" font-size="11.00" fill="gray">\</text>
</g>
<!-- \\HtmlFrame -->
<g id="node2" class="node"><title>\\HtmlFrame</title>
<polygon fill="none" stroke="black" points="399,-106 321,-106 321,-70 399,-70 399,-106"/>
<text text-anchor="middle" x="360" y="-85.1" font-family="Times Roman,serif" font-size="11.00">HtmlFrame</text>
</g>
<!-- \\Container -->
<g id="node3" class="node"><title>\\Container</title>
<polygon fill="none" stroke="black" points="243,-79 167,-79 167,-43 243,-43 243,-79"/>
<text text-anchor="start" x="175" y="-66.4333" font-family="Times Roman,serif" font-size="11.00">«abstract»</text>
<text text-anchor="start" x="178.5" y="-53.2333" font-family="Times Roman,serif" font-size="11.00">Container</text>
</g>
<!-- \\HtmlFrame&#45;&gt;\\Container -->
<g id="edge3" class="edge"><title>\\HtmlFrame&#45;&gt;\\Container</title>
<path fill="none" stroke="black" d="M320.887,-81.1868C300.448,-77.6264 275.243,-73.2359 253.565,-69.4597"/>
<polygon fill="none" stroke="black" points="254.016,-65.9856 243.564,-67.7175 252.815,-72.8818 254.016,-65.9856"/>
</g>
<!-- \\Displayable -->
<g id="node6" class="node"><title>\\Displayable</title>
<polygon fill="none" stroke="black" points="93,-79 17,-79 17,-43 93,-43 93,-79"/>
<text text-anchor="middle" x="55" y="-58.1" font-family="Times Roman,serif" font-size="11.00">Displayable</text>
</g>
<!-- \\Container&#45;&gt;\\Displayable -->
<g id="edge5" class="edge"><title>\\Container&#45;&gt;\\Displayable</title>
<path fill="none" stroke="black" stroke-dasharray="1,5" d="M166.371,-61C147.287,-61 124.057,-61 103.76,-61"/>
<polygon fill="none" stroke="black" points="103.758,-57.5001 93.7582,-61 103.758,-64.5001 103.758,-57.5001"/>
</g>
<!-- \\TagContainer -->
<g id="node4" class="node"><title>\\TagContainer</title>
<polygon fill="none" stroke="black" points="403,-52 317,-52 317,-16 403,-16 403,-52"/>
<text text-anchor="middle" x="360" y="-31.1" font-family="Times Roman,serif" font-size="11.00">TagContainer</text>
</g>
<!-- \\TagContainer&#45;&gt;\\Container -->
<g id="edge7" class="edge"><title>\\TagContainer&#45;&gt;\\Container</title>
<path fill="none" stroke="black" d="M316.411,-41.5929C296.802,-45.0087 273.584,-49.0531 253.433,-52.5633"/>
<polygon fill="none" stroke="black" points="252.765,-49.1269 243.514,-54.2912 253.966,-56.0231 252.765,-49.1269"/>
</g>
<!-- \\ListContainer -->
<g id="node5" class="node"><title>\\ListContainer</title>
<polygon fill="none" stroke="black" points="564,-52 476,-52 476,-16 564,-16 564,-52"/>
<text text-anchor="middle" x="520" y="-31.1" font-family="Times Roman,serif" font-size="11.00">ListContainer</text>
</g>
<!-- \\ListContainer&#45;&gt;\\TagContainer -->
<g id="edge9" class="edge"><title>\\ListContainer&#45;&gt;\\TagContainer</title>
<path fill="none" stroke="black" d="M475.856,-34C456.715,-34 434.122,-34 413.993,-34"/>
<polygon fill="none" stroke="black" points="413.723,-30.5001 403.723,-34 413.723,-37.5001 413.723,-30.5001"/>
</g>
</g>
</svg>
